<svg width="117" height="119" viewBox="0 0 117 119" fill="none" xmlns="http://www.w3.org/2000/svg">
<path d="M0.00413885 118.279H41.8055V117.803C41.8055 118.246 36.7935 117.601 36.4376 117.502C30.6599 115.856 32.5679 110.085 33.706 105.905C35.2291 100.303 36.7521 94.7054 38.2752 89.1035C39.6575 84.0142 41.0275 78.9209 42.4264 73.8399C50.0665 81.2112 57.6859 88.5661 65.0819 96.1772C71.8612 103.152 78.984 110.11 87.8326 114.409C96.7309 118.729 107.045 120.061 116.75 118.147C117.127 110.411 117.077 102.651 116.605 94.9204C114.846 95.5571 113.021 95.9746 111.188 96.3467C101.755 98.265 92.0003 99.0422 82.4854 97.5746C62.2427 94.4615 48.8704 79.5906 35.109 65.7698C32.4395 63.0867 29.7742 60.3953 27.1047 57.7122C20.0067 49.0923 19.059 39.0874 21.3104 28.3591C25.7017 7.41497 48.3448 -3.84671 68.1942 3.06988C68.8771 3.30966 69.5518 3.56599 70.2181 3.84711C81.9101 8.75446 90.7008 20.0037 92.6212 32.5264C94.5415 45.049 89.5295 58.4109 79.8448 66.5925C71.3562 73.7613 58.8572 76.7545 48.7338 72.1614C47.5584 71.6281 46.3913 70.9707 45.6256 69.933C44.0239 67.7584 44.6737 64.7363 45.3938 62.1358C47.3225 55.1531 49.247 48.1745 51.1757 41.1917C52.0034 38.1903 52.9181 35.0359 55.1489 32.8612C57.748 30.327 61.6178 29.6283 65.2474 29.467C60.1361 30.0789 54.9875 29.0205 49.8389 28.851C44.6944 28.6815 39.0947 29.6159 35.5519 33.3491C33.3625 35.656 32.2326 38.7443 31.2931 41.7788C30.3619 44.7803 29.559 47.9719 30.246 51.0354C30.8172 53.5903 32.3733 55.8063 33.9833 57.8734C40.2949 65.9683 48.1834 73.0213 57.5494 77.2424C66.9112 81.4634 77.8375 82.6748 87.576 79.4087C101.693 74.6709 111.779 60.4243 112.466 45.5616C113.154 30.699 104.888 15.9894 92.319 8.0103C84.563 3.08641 75.3998 0.585196 66.22 0.105624C56.7092 -0.394619 46.3292 0.858057 37.4557 4.3763C24.191 9.63506 14.2953 22.5711 4.34569 35.3831L27.1088 58.1215C24.8408 66.5471 22.5728 74.9727 20.3047 83.4024C18.0491 91.7825 16.4308 100.828 13.302 108.902C11.4105 113.781 5.45074 118.275 0 118.275L0.00413885 118.279Z" fill="#121212"/>
</svg>
