<svg width="284" height="81" viewBox="0 0 284 81" fill="none" xmlns="http://www.w3.org/2000/svg">
<path d="M44.8463 61.966C45.0497 62.088 45.1107 62.2101 45.0294 62.3321C44.9887 62.4541 44.8667 62.4745 44.6633 62.3931C39.2532 60.4406 34.6771 57.5322 30.9348 53.6679C27.2332 49.7629 23.8367 44.2715 20.7452 37.1937L17.0843 37.0717C16.8809 37.031 16.7792 36.97 16.7792 36.8887C16.7792 36.7666 16.8809 36.6853 17.0843 36.6446L19.3419 36.5836C22.7994 36.2989 25.3417 35.1802 26.9688 33.2277C28.6366 31.2346 29.4704 28.5906 29.4704 25.2957C29.4704 21.9602 28.6162 19.54 26.9078 18.0349C25.24 16.4892 22.6367 15.6757 19.0978 15.5943L16.4131 15.4723C15.6403 15.4723 15.0911 15.635 14.7657 15.9604C14.481 16.2858 14.3386 16.8756 14.3386 17.7298V51.4103C14.3386 53.6476 14.7047 55.234 15.4369 56.1695C16.2098 57.1051 17.308 57.6136 18.7317 57.6949C18.9758 57.7356 19.0978 57.8373 19.0978 58C19.0978 58.122 18.9758 58.183 18.7317 58.183C17.1453 58.061 15.9657 58 15.1928 58H5.91849C5.14563 58 3.966 58.061 2.3796 58.183C2.13554 58.183 2.01351 58.122 2.01351 58C2.01351 57.8373 2.13554 57.7356 2.3796 57.6949C3.80329 57.6136 4.88123 57.1051 5.61342 56.1695C6.38628 55.234 6.77271 53.6476 6.77271 51.4103V21.8789C6.77271 19.6417 6.38628 18.0553 5.61342 17.1197C4.88123 16.1841 3.80329 15.6757 2.3796 15.5943C2.09486 15.5943 1.95249 15.5333 1.95249 15.4113C1.99317 15.2485 2.13554 15.1672 2.3796 15.1672C3.4372 15.2485 4.61683 15.2892 5.91849 15.2892C7.05745 15.2892 8.31843 15.2689 9.70145 15.2282C11.1251 15.1469 12.1827 15.1062 12.8742 15.1062C16.4538 15.0248 19.0368 14.9841 20.6232 14.9841C26.6027 14.9841 30.9755 15.8587 33.7415 17.6078C36.5482 19.3569 37.9516 22.0823 37.9516 25.7839C37.9516 28.8346 36.7109 31.3566 34.2296 33.3498C31.789 35.3023 28.3315 36.5022 23.857 36.9497C25.6468 37.031 27.2739 36.9497 28.7383 36.7056H28.8603C29.1043 36.7056 29.3077 36.8887 29.4704 37.2548C30.9755 42.8275 33.0907 47.8918 35.816 52.4476C38.5414 57.0034 41.5515 60.1762 44.8463 61.966ZM67.8134 52.5696C67.854 52.529 67.9151 52.5493 67.9964 52.6306C68.1184 52.712 68.1388 52.8137 68.0574 52.9357C66.471 54.8882 64.5592 56.3729 62.322 57.3898C60.0847 58.4068 57.7458 58.9152 55.3052 58.9152C52.7426 58.9152 50.363 58.3254 48.1664 57.1458C45.9699 55.9662 44.2207 54.2984 42.9191 52.1425C41.6581 49.946 41.0276 47.424 41.0276 44.5766C41.0276 41.7699 41.7191 39.1869 43.1021 36.8277C44.5258 34.4684 46.4376 32.6176 48.8376 31.2753C51.2375 29.8922 53.8612 29.2007 56.7086 29.2007C59.8814 29.2007 62.5254 30.0753 64.6406 31.8244C66.7558 33.5328 67.8134 35.8717 67.8134 38.8412C67.8134 40.1835 67.5693 41.6275 67.0812 43.1733C62.8101 43.2546 56.2611 43.4377 47.4342 43.7224C48.1257 45.9596 49.1833 47.9731 50.607 49.7629C52.0714 51.512 53.7391 52.895 55.6103 53.912C57.4814 54.8882 59.3119 55.3763 61.1017 55.3763C64.0711 55.3763 66.3083 54.4408 67.8134 52.5696ZM53.7188 30.36C51.4409 30.36 49.6918 31.0719 48.4715 32.4956C47.2919 33.8786 46.702 35.9734 46.702 38.7801C46.702 40.1632 46.9054 41.6682 47.3122 43.2953C49.6308 43.2546 52.3561 43.1529 55.4883 42.9902C56.3018 42.9495 57.1357 42.9089 57.9899 42.8682C58.8848 42.8275 59.7797 42.8072 60.6746 42.8072C61.0407 42.197 61.2237 41.4445 61.2237 40.5496C61.2237 39.2073 60.8373 37.7429 60.0644 36.1565C59.3322 34.5294 58.3763 33.1667 57.1967 32.0685C56.0577 30.9295 54.8984 30.36 53.7188 30.36ZM106.435 47.5664C106.435 47.363 106.496 47.2613 106.618 47.2613C106.78 47.2613 106.862 47.363 106.862 47.5664C106.862 50.6578 106.191 53.3018 104.848 55.4984C103.547 57.6949 101.838 58.7932 99.723 58.7932C98.1366 58.7932 96.7942 58.2441 95.696 57.1458C94.6384 56.0068 94.0892 54.3187 94.0486 52.0815L93.9875 51.8985C93.9062 51.7764 93.8045 51.7358 93.6825 51.7764C93.6011 51.7764 93.5198 51.8578 93.4384 52.0205C91.0791 56.6577 87.764 58.9762 83.4929 58.9762C81.3777 58.9762 79.4049 58.4068 77.5744 57.2678C75.7846 56.0882 74.3406 54.4408 73.2423 52.3256C72.144 50.1697 71.5949 47.6884 71.5949 44.8817C71.5949 42.0343 72.2661 39.4106 73.6084 37.0107C74.9507 34.6108 76.6998 32.7193 78.8557 31.3363C81.0523 29.9126 83.3302 29.2007 85.6894 29.2007C88.9843 29.2007 91.7503 30.299 93.9875 32.4956L93.9265 24.4415C93.9265 22.8958 93.8045 21.7569 93.5604 21.0247C93.357 20.2518 93.0723 19.784 92.7062 19.6213C92.3401 19.4586 91.852 19.4179 91.2418 19.4993H91.1198C90.8351 19.4993 90.713 19.3773 90.7537 19.1332C95.3502 17.9536 98.8891 16.2655 101.37 14.0689H101.492C101.736 14.0689 101.838 14.2316 101.798 14.557C101.513 16.2655 101.309 18.0349 101.187 19.8654C101.106 21.6958 101.065 24.0348 101.065 26.8821V50.4951C101.065 53.1798 101.757 54.5221 103.14 54.5221C104.482 54.5221 105.357 53.912 105.764 52.6917C106.17 51.4714 106.394 49.7629 106.435 47.5664ZM88.069 55.0713C89.9809 55.0713 91.4249 54.4001 92.4011 53.0578C93.3774 51.6747 93.9265 49.6002 94.0486 46.8342L93.9875 43.1733C93.8248 39.553 93.0113 36.5022 91.5469 34.021C90.0826 31.5397 87.9674 30.299 85.2013 30.299C80.1574 30.299 77.6354 33.1464 77.6354 38.8412C77.6354 41.4852 78.1235 44.0682 79.0998 46.5901C80.1167 49.1121 81.4387 51.1663 83.0658 52.7527C84.6929 54.2984 86.3606 55.0713 88.069 55.0713ZM122.352 58.9762C119.545 58.9762 117.003 58.3864 114.725 57.2068C112.487 55.9865 110.718 54.2781 109.416 52.0815C108.155 49.885 107.525 47.3833 107.525 44.5766C107.525 41.7292 108.257 39.1462 109.721 36.8277C111.186 34.4684 113.179 32.6176 115.701 31.2753C118.264 29.9329 121.07 29.2617 124.121 29.2617C126.968 29.2617 129.531 29.8719 131.809 31.0922C134.128 32.2718 135.938 33.9396 137.239 36.0955C138.541 38.2513 139.192 40.7123 139.192 43.4783C139.192 46.3257 138.439 48.9494 136.934 51.3493C135.47 53.7086 133.436 55.5797 130.833 56.9627C128.27 58.3051 125.443 58.9762 122.352 58.9762ZM125.707 57.5119C128.026 57.5119 129.836 56.861 131.138 55.5594C132.48 54.217 133.151 52.2646 133.151 49.7019C133.151 47.2206 132.5 44.4749 131.199 41.4648C129.938 38.4547 128.331 35.9124 126.379 33.8379C124.467 31.7227 122.596 30.6651 120.765 30.6651C118.487 30.6651 116.698 31.3159 115.396 32.6176C114.094 33.9193 113.443 35.8718 113.443 38.4751C113.443 40.9157 114.074 43.6614 115.335 46.7122C116.596 49.7222 118.182 52.2849 120.094 54.4001C122.047 56.4746 123.918 57.5119 125.707 57.5119Z" fill="black"/>
<path d="M182.784 60.472C182.825 60.4313 182.886 60.4516 182.967 60.533C183.089 60.6143 183.109 60.716 183.028 60.8381C181.442 62.7906 179.53 64.2753 177.292 65.2922C175.055 66.3091 172.716 66.8176 170.276 66.8176C167.713 66.8176 165.333 66.2278 163.137 65.0481C160.94 63.8685 159.191 62.2007 157.89 60.0449C156.629 57.8483 155.998 55.3263 155.998 52.479C155.998 49.6722 156.69 47.0893 158.073 44.73C159.496 42.3707 161.408 40.5199 163.808 39.1776C166.208 37.7946 168.832 37.1031 171.679 37.1031C174.852 37.1031 177.496 37.9776 179.611 39.7267C181.726 41.4352 182.784 43.7741 182.784 46.7435C182.784 48.0858 182.54 49.5299 182.052 51.0756C177.781 51.157 171.232 51.34 162.405 51.6247C163.096 53.862 164.154 55.8755 165.577 57.6653C167.042 59.4144 168.71 60.7974 170.581 61.8143C172.452 62.7906 174.282 63.2787 176.072 63.2787C179.042 63.2787 181.279 62.3431 182.784 60.472ZM168.689 38.2624C166.411 38.2624 164.662 38.9742 163.442 40.3979C162.262 41.7809 161.673 43.8758 161.673 46.6825C161.673 48.0655 161.876 49.5706 162.283 51.1976C164.601 51.157 167.327 51.0553 170.459 50.8926C171.272 50.8519 172.106 50.8112 172.96 50.7705C173.855 50.7298 174.75 50.7095 175.645 50.7095C176.011 50.0994 176.194 49.3468 176.194 48.4519C176.194 47.1096 175.808 45.6452 175.035 44.0588C174.303 42.4318 173.347 41.0691 172.167 39.9708C171.028 38.8318 169.869 38.2624 168.689 38.2624ZM225.019 55.5297C225.019 55.2857 225.101 55.1636 225.263 55.1636C225.426 55.123 225.507 55.245 225.507 55.5297C225.507 57.889 225.162 59.9228 224.47 61.6313C223.779 63.3397 222.863 64.6414 221.725 65.5363C220.586 66.3905 219.386 66.8176 218.125 66.8176C215.562 66.8176 213.752 64.6617 212.694 60.3499L208.789 44.4249C208.423 42.7978 207.915 41.6386 207.264 40.947C206.613 40.2149 205.515 39.8488 203.969 39.8488C202.179 39.8488 200.654 40.642 199.393 42.2284C198.132 43.8148 197.359 45.9503 197.074 48.635V60.533C197.074 62.3635 197.339 63.6448 197.868 64.377C198.437 65.1091 199.393 65.5159 200.735 65.5973C200.939 65.5973 201.04 65.6786 201.04 65.8413C201.04 65.9634 200.939 66.0244 200.735 66.0244C199.8 65.9837 197.42 65.9634 193.596 65.9634C189.773 65.9634 187.373 65.9837 186.397 66.0244C186.193 66.0244 186.092 65.943 186.092 65.7803C186.092 65.6176 186.214 65.5363 186.458 65.5363C187.393 65.5363 188.105 65.4346 188.593 65.2312C189.081 65.0278 189.447 64.56 189.691 63.8278C189.936 63.0956 190.058 61.977 190.058 60.472V45.8893C190.058 44.3436 189.854 43.225 189.447 42.5334C189.081 41.8013 188.369 41.4352 187.312 41.4352C187.108 41.4352 186.763 41.4758 186.275 41.5572C186.112 41.5979 186.01 41.5572 185.97 41.4352C185.97 41.2725 186.031 41.1708 186.153 41.1301C188.064 40.6826 190.017 40.0928 192.01 39.3606C194.044 38.6285 195.691 37.8353 196.952 36.981C197.074 36.8997 197.217 36.859 197.379 36.859C197.583 36.859 197.684 36.981 197.684 37.2251C197.318 40.8047 197.115 43.3877 197.074 44.9741C197.766 42.7775 199.047 40.9267 200.918 39.4217C202.83 37.8759 204.966 37.1031 207.325 37.1031C209.928 37.1031 211.881 37.6726 213.182 38.8115C214.484 39.9505 215.42 41.6996 215.989 44.0588L219.711 59.3127C220.24 61.4686 221.053 62.5465 222.152 62.5465C222.884 62.5465 223.555 61.916 224.165 60.655C224.775 59.3534 225.06 57.6449 225.019 55.5297ZM248.948 53.2111C248.867 53.4145 248.745 53.5162 248.582 53.5162C248.46 53.4755 248.44 53.3332 248.521 53.0891C248.725 52.2756 248.826 51.4824 248.826 50.7095C248.826 48.8384 248.379 46.9469 247.484 45.0351C246.589 43.0826 245.409 41.4758 243.945 40.2149C242.481 38.9539 240.935 38.3234 239.308 38.3234C234.508 38.3234 232.108 41.0691 232.108 46.5605C232.108 49.5706 232.8 52.3773 234.183 54.9806C235.566 57.5432 237.355 59.5771 239.552 61.0821C241.789 62.5872 244.047 63.3397 246.325 63.3397C249.253 63.3397 251.491 62.4041 253.036 60.533C253.199 60.3703 253.321 60.3499 253.402 60.472C253.484 60.5533 253.484 60.655 253.402 60.7771C250.189 64.8041 245.938 66.8176 240.65 66.8176C238.047 66.8176 235.647 66.2278 233.45 65.0481C231.254 63.8685 229.484 62.2007 228.142 60.0449C226.84 57.8483 226.19 55.3263 226.19 52.479C226.19 49.7129 226.881 47.1503 228.264 44.791C229.688 42.4318 231.6 40.5606 234 39.1776C236.4 37.7946 239.003 37.1031 241.81 37.1031C243.762 37.1031 245.593 37.3675 247.301 37.8963C249.009 38.4251 250.311 39.1166 251.206 39.9708C252.141 40.7843 252.508 41.5979 252.304 42.4114L248.948 53.2111ZM282.172 60.472C282.213 60.4313 282.274 60.4516 282.355 60.533C282.477 60.6143 282.498 60.716 282.416 60.8381C280.83 62.7906 278.918 64.2753 276.681 65.2922C274.444 66.3091 272.105 66.8176 269.664 66.8176C267.101 66.8176 264.722 66.2278 262.525 65.0481C260.329 63.8685 258.58 62.2007 257.278 60.0449C256.017 57.8483 255.386 55.3263 255.386 52.479C255.386 49.6722 256.078 47.0893 257.461 44.73C258.885 42.3707 260.796 40.5199 263.196 39.1776C265.596 37.7946 268.22 37.1031 271.067 37.1031C274.24 37.1031 276.884 37.9776 278.999 39.7267C281.115 41.4352 282.172 43.7741 282.172 46.7435C282.172 48.0858 281.928 49.5299 281.44 51.0756C277.169 51.157 270.62 51.34 261.793 51.6247C262.485 53.862 263.542 55.8755 264.966 57.6653C266.43 59.4144 268.098 60.7974 269.969 61.8143C271.84 62.7906 273.671 63.2787 275.46 63.2787C278.43 63.2787 280.667 62.3431 282.172 60.472ZM268.078 38.2624C265.8 38.2624 264.051 38.9742 262.83 40.3979C261.651 41.7809 261.061 43.8758 261.061 46.6825C261.061 48.0655 261.264 49.5706 261.671 51.1976C263.99 51.157 266.715 51.0553 269.847 50.8926C270.661 50.8519 271.494 50.8112 272.349 50.7705C273.244 50.7298 274.138 50.7095 275.033 50.7095C275.399 50.0994 275.583 49.3468 275.583 48.4519C275.583 47.1096 275.196 45.6452 274.423 44.0588C273.691 42.4318 272.735 41.0691 271.556 39.9708C270.417 38.8318 269.257 38.2624 268.078 38.2624Z" fill="black"/>
<path d="M148.947 29.7898C149.1 29.2924 149.177 28.8142 149.177 28.3551C149.177 27.1691 148.545 26.6717 147.283 26.863C147.053 26.9013 146.919 26.863 146.881 26.7482C146.881 26.6335 146.919 26.5378 146.996 26.4613C149.024 25.9257 151.051 25.2562 153.079 24.4527C155.107 23.6111 156.924 22.6546 158.531 21.5834H158.646C158.875 21.5834 158.933 21.7364 158.818 22.0425C157.785 24.338 156.503 27.7047 154.973 32.1427L154.399 33.7495L147.053 55.9585C146.671 57.2975 146.479 58.2731 146.479 58.8852C146.479 59.6121 146.728 59.9756 147.226 59.9756C147.723 59.9756 148.125 59.8417 148.431 59.5739C148.775 59.3061 149.138 58.7704 149.521 57.967C149.904 57.1253 150.382 55.8054 150.956 54.0073C151.032 53.8925 151.128 53.8351 151.243 53.8351C151.319 53.8351 151.377 53.8734 151.415 53.9499C151.453 54.0264 151.453 54.1412 151.415 54.2942C150.573 57.1636 149.406 59.4591 147.914 61.1807C146.46 62.8641 144.662 63.7058 142.52 63.7058C140.339 63.7058 139.249 62.6154 139.249 60.4347C139.249 59.3635 139.44 58.254 139.823 57.1062L148.947 29.7898Z" fill="black"/>
</svg>
