<svg width="237" height="242" viewBox="0 0 237 242" fill="none" xmlns="http://www.w3.org/2000/svg">
<path d="M0.0253005 240.555H84.6927V239.582C84.6927 240.487 74.5383 239.167 73.8214 238.964C62.1153 235.623 65.9864 223.873 68.2888 215.379C71.3756 203.984 74.4624 192.598 77.5408 181.203C80.3408 170.857 83.1156 160.495 85.9493 150.157C101.417 165.147 116.859 180.104 131.838 195.584C145.568 209.771 159.999 223.923 177.92 232.662C195.944 241.443 216.834 244.158 236.493 240.267C237.252 224.532 237.16 208.756 236.207 193.03C232.648 194.324 228.945 195.17 225.234 195.931C206.132 199.831 186.371 201.413 167.1 198.435C126.103 192.099 99.0049 161.857 71.1395 133.746C65.7334 128.29 60.3357 122.816 54.9212 117.36C40.5499 99.8322 38.627 79.4788 43.1813 57.662C52.079 15.0604 97.9338 -7.83927 138.138 6.22873C139.521 6.71092 140.887 7.23541 142.237 7.81065C165.919 17.7843 183.723 40.667 187.619 66.1383C191.507 91.6096 181.361 118.79 161.736 135.421C144.539 150.005 119.221 156.087 98.7182 146.748C96.3398 145.665 93.9699 144.329 92.4265 142.214C89.1879 137.798 90.5036 131.64 91.9542 126.352C95.8591 112.158 99.764 97.9542 103.66 83.7593C105.339 77.6516 107.194 71.2393 111.706 66.8151C116.969 61.6548 124.804 60.2421 132.158 59.9122C121.802 61.1557 111.377 58.9986 100.953 58.6602C90.5289 58.3218 79.1938 60.2167 72.0166 67.8133C67.5804 72.4998 65.2948 78.7851 63.3888 84.9605C61.508 91.0682 59.8803 97.5566 61.2719 103.791C62.4273 108.994 65.5731 113.494 68.837 117.698C81.6228 134.169 97.6049 148.508 116.564 157.094C135.532 165.68 157.662 168.15 177.381 161.501C205.971 151.866 226.407 122.893 227.798 92.6671C229.19 62.4416 212.449 32.5206 186.987 16.2954C171.275 6.27949 152.712 1.19538 134.123 0.214089C114.852 -0.80104 93.835 1.74524 75.8624 8.89345C48.9922 19.5862 28.9534 45.8949 8.79649 71.9584L54.9043 118.206C50.3079 135.345 45.7114 152.484 41.1234 169.622C36.5523 186.668 33.2715 205.067 26.9377 221.487C23.1087 231.41 11.0315 240.546 0 240.546L0.0253005 240.555Z" fill="#F2F2F2"/>
</svg>
