<svg width="332" height="424" viewBox="0 0 332 424" fill="none" xmlns="http://www.w3.org/2000/svg">
<path d="M102.817 196.764C57.7007 219.804 -35.4042 237.23 14.1279 150.265L359.061 -254L509.925 -125.278C517.015 -111.88 528.129 -86.4246 515.867 -91.7916C500.54 -98.5002 449.701 47.7241 450.92 51.4591C452.139 55.194 469.919 44.3977 457.26 59.8078C447.133 72.1359 456.217 84.8845 452.319 85.9676C438.458 89.8189 432.352 104.206 431.031 110.917C427.646 128.117 428.521 151.155 429.577 164.549C430.421 175.264 439.392 186.037 442.78 191.247C446.168 196.457 458.988 289.588 450.789 312.968C442.59 336.348 450.516 406.311 435.148 420.88C419.78 435.448 369.669 386.812 364.143 360.296C358.618 333.78 347.136 288.35 343.382 295.901C339.711 303.285 357.186 323.886 346.553 331.471C338.047 337.539 341.417 338.262 334.649 351.543C328.579 363.458 326.5 326.472 322.56 315.507C313.623 290.636 281.347 250.201 298.238 214.003C332.635 196.029 318.12 183.195 311.57 155.967C312.837 131.818 159.212 167.963 102.817 196.764Z" fill="white"/>
</svg>
