<svg width="356" height="279" viewBox="0 0 356 279" fill="none" xmlns="http://www.w3.org/2000/svg">
<path d="M73.5261 107.5C86.4191 101.058 118.498 72.7618 132.926 59.4187C147.431 41.2445 259.323 -5.45543 265.309 0.525129C266.691 1.90507 264.1 5.4068 266.691 7.19667C285.34 20.0793 332.23 105.89 350.495 147.299C358.246 176.823 376.972 239.873 389.865 255.884C405.981 275.899 415.191 306.266 417.032 313.398C418.874 320.529 415.191 326.281 424.63 329.041C432.182 331.25 432.535 344.838 431.767 351.356V367H27.7098C21.954 359.868 -8.96523 323.395 2.54639 302C14.058 280.605 41.9842 203.432 43.5959 159.262C45.2075 115.092 57.4098 115.552 73.5261 107.5Z" fill="white"/>
</svg>
